<?xml version="1.0" encoding="UTF-8" standalone="no"?>
<!-- Svg Vector Icons : http://www.onlinewebfonts.com/icon -->

<svg
   version="1.1"
   x="0px"
   y="0px"
   viewBox="0 0 32 32"
   enable-background="new 0 0 256 256"
   xml:space="preserve"
   id="svg7"
   sodipodi:docname="pluginIcon.svg"
   width="32"
   height="32"
   inkscape:version="1.4.2 (2aeb623e1d, 2025-05-12)"
   xmlns:inkscape="http://www.inkscape.org/namespaces/inkscape"
   xmlns:sodipodi="http://sodipodi.sourceforge.net/DTD/sodipodi-0.dtd"
   xmlns:xlink="http://www.w3.org/1999/xlink"
   xmlns="http://www.w3.org/2000/svg"
   xmlns:svg="http://www.w3.org/2000/svg"><defs
   id="defs7"><linearGradient
     id="linearGradient20"
     inkscape:collect="always"><stop
       style="stop-color:#000080;stop-opacity:0.67290783;"
       offset="0.00039136"
       id="stop20" /><stop
       style="stop-color:#148000;stop-opacity:0.71491534;"
       offset="1"
       id="stop21" /></linearGradient><linearGradient
     id="linearGradient18"
     inkscape:collect="always"><stop
       style="stop-color:#008000;stop-opacity:1;"
       offset="0"
       id="stop18" /><stop
       style="stop-color:#001380;stop-opacity:0.54749876;"
       offset="1"
       id="stop19" /></linearGradient><linearGradient
     id="paint0_linear"
     x1="2.94192"
     y1="4.89955"
     x2="37.777199"
     y2="39.734501"
     gradientUnits="userSpaceOnUse"><stop
       offset="0.15937"
       stop-color="#3BEA62"
       id="stop1" /><stop
       offset="0.5404"
       stop-color="#3C99CC"
       id="stop2" /><stop
       offset="0.93739"
       stop-color="#6B57FF"
       id="stop3" /></linearGradient><linearGradient
     inkscape:collect="always"
     xlink:href="#linearGradient18"
     id="linearGradient19"
     x1="27.8"
     y1="127.95"
     x2="228.2"
     y2="127.95"
     gradientUnits="userSpaceOnUse" /><linearGradient
     inkscape:collect="always"
     xlink:href="#linearGradient20"
     id="linearGradient21"
     x1="6.9239896"
     y1="17.058521"
     x2="20.158779"
     y2="17.058521"
     gradientUnits="userSpaceOnUse" /></defs><sodipodi:namedview
   id="namedview7"
   pagecolor="#ffffff"
   bordercolor="#000000"
   borderopacity="0.25"
   inkscape:showpageshadow="2"
   inkscape:pageopacity="0.0"
   inkscape:pagecheckerboard="0"
   inkscape:deskcolor="#d1d1d1"
   inkscape:zoom="6.0536225"
   inkscape:cx="8.6724932"
   inkscape:cy="27.999764"
   inkscape:window-width="1300"
   inkscape:window-height="699"
   inkscape:window-x="0"
   inkscape:window-y="0"
   inkscape:window-maximized="1"
   inkscape:current-layer="svg7" />
<metadata
   id="metadata1"> Svg Vector Icons : http://www.onlinewebfonts.com/icon </metadata>

<g
   style="fill:none"
   id="g8"
   transform="translate(-4,-4)" /><g
   id="g7"
   transform="matrix(0.1247629,0,0,0.1247629,-0.52177,0.782921)"
   style="fill:url(#linearGradient19)"><g
     id="g6"
     style="fill:url(#linearGradient19)"><path
       id="path6"
       d="m 228.2,218.8 c 0,9.2 -2.6,16 -7.7,20.4 -5.1,4.5 -12.5,6.7 -22.1,6.7 -3.1,0 -6.1,-0.3 -9.2,-0.9 -3.1,-0.6 -5.9,-1.7 -8.4,-3.2 -2.6,-1.5 -4.7,-3.4 -6.4,-5.9 -1.7,-2.4 -2.7,-5.4 -3.1,-8.9 h 13.4 c 0.4,1.9 1.1,3.4 2,4.6 0.9,1.2 2,2.1 3.3,2.7 1.3,0.7 2.7,1.1 4.3,1.3 1.6,0.2 3.2,0.3 4.9,0.3 5.4,0 9.3,-1.3 11.8,-4 2.5,-2.6 3.7,-6.5 3.7,-11.5 v -9.2 h -0.2 c -1.9,3.3 -4.4,6 -7.7,7.9 -3.3,1.9 -6.7,2.8 -10.5,2.8 -4.8,0 -9,-0.8 -12.4,-2.5 -3.4,-1.7 -6.2,-4 -8.5,-6.9 -2.2,-2.9 -3.9,-6.3 -4.9,-10.1 -1,-3.8 -1.5,-7.9 -1.5,-12.3 0,-4.1 0.6,-7.9 1.9,-11.6 1.3,-3.7 3.1,-6.9 5.4,-9.7 2.3,-2.8 5.2,-5 8.6,-6.6 3.4,-1.6 7.3,-2.5 11.5,-2.5 3.8,0 7.3,0.8 10.5,2.4 3.2,1.6 5.7,4.1 7.4,7.6 h 0.2 v -8.3 h 13.4 z m -29.7,-7.4 c 3,0 5.5,-0.6 7.6,-1.8 2.1,-1.2 3.8,-2.8 5.1,-4.8 1.3,-2 2.2,-4.3 2.8,-6.8 0.6,-2.5 0.9,-5.1 0.9,-7.7 0,-2.6 -0.3,-5.1 -0.9,-7.5 -0.6,-2.4 -1.6,-4.6 -2.9,-6.5 -1.3,-1.9 -3,-3.3 -5.1,-4.5 -2.1,-1.1 -4.6,-1.6 -7.4,-1.6 -3,0 -5.5,0.6 -7.5,1.9 -2,1.3 -3.7,2.9 -4.9,4.9 -1.2,2 -2.1,4.3 -2.7,6.8 -0.6,2.5 -0.8,5.1 -0.8,7.6 0,2.5 0.3,4.9 0.9,7.3 0.6,2.4 1.6,4.5 2.9,6.4 1.3,1.9 2.9,3.4 4.9,4.6 1.9,1.1 4.3,1.7 7.1,1.7 z m -68.1,12.2 c -4.8,0 -9.2,-0.8 -13,-2.4 -3.8,-1.6 -7,-3.8 -9.6,-6.6 -2.6,-2.8 -4.6,-6.2 -6,-10.1 -1.4,-3.9 -2,-8.2 -2,-12.9 0,-4.6 0.7,-8.9 2,-12.8 1.4,-3.9 3.3,-7.2 6,-10.1 2.6,-2.8 5.8,-5 9.6,-6.6 3.8,-1.6 8.1,-2.4 13,-2.4 4.8,0 9.2,0.8 13,2.4 3.8,1.6 7,3.8 9.6,6.6 2.6,2.8 4.6,6.2 6,10.1 1.4,3.9 2,8.2 2,12.8 0,4.7 -0.7,9 -2,12.9 -1.4,3.9 -3.3,7.3 -6,10.1 -2.6,2.8 -5.8,5 -9.6,6.6 -3.8,1.6 -8.1,2.4 -13,2.4 z m 0,-10.5 c 3,0 5.5,-0.6 7.7,-1.9 2.2,-1.3 4,-2.9 5.4,-4.9 1.4,-2 2.4,-4.3 3.1,-6.9 0.7,-2.5 1,-5.1 1,-7.8 0,-2.6 -0.3,-5.2 -1,-7.7 -0.7,-2.6 -1.7,-4.9 -3.1,-6.9 -1.4,-2 -3.2,-3.6 -5.4,-4.9 -2.2,-1.3 -4.8,-1.9 -7.7,-1.9 -3,0 -5.5,0.6 -7.7,1.9 -2.2,1.3 -4,2.9 -5.4,4.9 -1.4,2 -2.5,4.3 -3.1,6.9 -0.7,2.6 -1,5.2 -1,7.7 0,2.6 0.3,5.3 1,7.8 0.6,2.6 1.7,4.8 3.1,6.9 1.4,2 3.2,3.7 5.4,4.9 2.2,1.2 4.8,1.9 7.7,1.9 z M 61.3,77.1 171.63026,70.479829 165.01009,93.137983 59.313949,93.8 Z M 64.610086,43.6 183.54656,40.289914 176.92639,60.962017 61.3,60.3 Z M 198.52902,25.29565 178.4,127.1 h 16.7 L 222.25077,10 45.530022,14.432505 27.8,222.3 H 84.3 V 205.6 H 44.5 L 59.829081,29.470316 Z"
       style="fill:url(#linearGradient19)" /></g></g><text
   xml:space="preserve"
   style="font-size:5.47241px;text-align:start;writing-mode:lr-tb;direction:ltr;text-anchor:start;fill:url(#linearGradient21);fill-opacity:0.395235;fill-rule:evenodd;stroke:none;stroke-width:0.315418"
   x="7.2072296"
   y="18.541523"
   id="text8"><tspan
     sodipodi:role="line"
     id="tspan8"
     x="7.2072296"
     y="18.541523"
     style="stroke-width:0.315418;fill:url(#linearGradient21);stroke:none">JSON</tspan></text></svg>
